<?xml version="1.0" encoding="utf-8"?>
<!-- Generator: Adobe Illustrator 16.0.0, SVG Export Plug-In . SVG Version: 6.00 Build 0)  -->
<!DOCTYPE svg PUBLIC "-//W3C//DTD SVG 1.0//EN" "http://www.w3.org/TR/2001/REC-SVG-20010904/DTD/svg10.dtd">
<svg version="1.0" id="Layer_1" xmlns="http://www.w3.org/2000/svg" xmlns:xlink="http://www.w3.org/1999/xlink" x="0px" y="0px"
	 width="708.66px" height="708.66px" viewBox="0 0 708.66 708.66" enable-background="new 0 0 708.66 708.66" xml:space="preserve">
<g>
	<path fill="none" stroke="#373431" stroke-width="12" stroke-linecap="round" stroke-linejoin="round" stroke-miterlimit="10" d="
		M402.574,296.726v-13.892c-2.93-24.048-23.389-42.676-48.242-42.676c-24.83,0-45.289,18.628-48.23,42.676v13.892
		c-6.287,2.221-10.828,8.154-10.828,15.209c0,13.844,7.008,25.025,15.76,25.416c8.045,24.755,24.377,41.747,43.299,41.747
		c18.92,0,35.277-16.992,43.311-41.747c8.74-0.391,15.771-11.572,15.771-25.416C413.414,304.881,408.873,298.947,402.574,296.726z"
		/>
	<path fill="none" stroke="#373431" stroke-width="12" stroke-linecap="round" stroke-linejoin="round" stroke-miterlimit="10" d="
		M294.469,445.357l-6.713,53.711L294.469,445.357z"/>
	<path fill="none" stroke="#373431" stroke-width="12" stroke-linecap="round" stroke-linejoin="round" stroke-miterlimit="10" d="
		M420.908,499.068l-6.713-53.711L420.908,499.068z"/>
	<path fill="none" stroke="#373431" stroke-width="12" stroke-linecap="round" stroke-linejoin="round" stroke-miterlimit="10" d="
		M465.488,448.58c0-10.863-4.395-20.678-11.475-27.783l-64.184-26.586c-2.76-1.172-5.299-2.832-7.422-4.956
		c-4.127-4.102-6.666-9.814-6.666-16.113v-1.904c-6.445,5.029-13.721,7.861-21.41,7.861c-7.691,0-14.941-2.832-21.412-7.861v1.904
		c0,6.299-2.539,12.012-6.676,16.113c-2.113,2.124-4.615,3.784-7.41,4.956l-64.16,26.586c-7.117,7.105-11.512,16.92-11.512,27.783
		v19.922c28.725,28.003,67.908,45.288,111.17,45.288s82.445-17.285,111.156-45.263V448.58z"/>
	
		<circle fill="none" stroke="#373431" stroke-width="12" stroke-linecap="round" stroke-linejoin="round" stroke-miterlimit="10" cx="354.332" cy="354.344" r="159.447"/>
	<path fill="none" stroke="#373431" stroke-width="12" stroke-linecap="round" stroke-linejoin="round" stroke-miterlimit="10" d="
		M637.801,513.79c0,29.345-23.803,53.149-53.148,53.149c-29.371,0-53.148-23.805-53.148-53.149c0-29.37,23.777-53.173,53.148-53.173
		C613.998,460.617,637.801,484.42,637.801,513.79z"/>
	<path fill="none" stroke="#373431" stroke-width="12" stroke-linecap="round" stroke-linejoin="round" stroke-miterlimit="10" d="
		M615.658,513.79c0,17.114-13.893,31.005-31.006,31.005c-17.139,0-31.006-13.891-31.006-31.005c0-17.139,13.867-31.03,31.006-31.03
		C601.766,482.76,615.658,496.651,615.658,513.79z"/>
	<path fill="none" stroke="#373431" stroke-width="12" stroke-linecap="round" stroke-linejoin="round" stroke-miterlimit="10" d="
		M637.801,124.047c0,29.346-23.803,53.148-53.148,53.148c-29.371,0-53.148-23.803-53.148-53.148
		c0-29.369,23.777-53.174,53.148-53.174C613.998,70.873,637.801,94.677,637.801,124.047z"/>
	<path fill="none" stroke="#373431" stroke-width="12" stroke-linecap="round" stroke-linejoin="round" stroke-miterlimit="10" d="
		M615.658,124.047c0,17.114-13.893,30.981-31.006,30.981c-17.139,0-31.006-13.867-31.006-30.981
		c0-17.139,13.867-31.029,31.006-31.029C601.766,93.017,615.658,106.908,615.658,124.047z"/>
	<path fill="none" stroke="#373431" stroke-width="12" stroke-linecap="round" stroke-linejoin="round" stroke-miterlimit="10" d="
		M177.172,531.514c0,29.345-23.791,53.149-53.148,53.149s-53.148-23.805-53.148-53.149c0-29.37,23.791-53.173,53.148-53.173
		S177.172,502.144,177.172,531.514z"/>
	<path fill="none" stroke="#373431" stroke-width="12" stroke-linecap="round" stroke-linejoin="round" stroke-miterlimit="10" d="
		M155.029,531.514c0,17.114-13.879,31.005-31.006,31.005s-31.006-13.891-31.006-31.005c0-17.139,13.879-31.03,31.006-31.03
		S155.029,514.376,155.029,531.514z"/>
	<path fill="none" stroke="#373431" stroke-width="12" stroke-linecap="round" stroke-linejoin="round" stroke-miterlimit="10" d="
		M177.172,230.345c0,29.345-23.791,53.148-53.148,53.148s-53.148-23.804-53.148-53.148c0-29.371,23.791-53.174,53.148-53.174
		S177.172,200.974,177.172,230.345z"/>
	<path fill="none" stroke="#373431" stroke-width="12" stroke-linecap="round" stroke-linejoin="round" stroke-miterlimit="10" d="
		M155.029,230.345c0,17.113-13.879,31.005-31.006,31.005s-31.006-13.892-31.006-31.005c0-17.139,13.879-31.031,31.006-31.031
		S155.029,213.207,155.029,230.345z"/>
	<path fill="none" stroke="#373431" stroke-width="12" stroke-linecap="round" stroke-linejoin="round" stroke-miterlimit="10" d="
		M496.055,602.363c0,19.556-15.846,35.425-35.426,35.425s-35.424-15.869-35.424-35.425c0-19.555,15.844-35.424,35.424-35.424
		S496.055,582.808,496.055,602.363z"/>
	<path fill="none" stroke="#373431" stroke-width="12" stroke-linecap="round" stroke-linejoin="round" stroke-miterlimit="10" d="
		M478.354,141.747c0,19.556-15.869,35.425-35.424,35.425c-19.58,0-35.449-15.869-35.449-35.425c0-19.58,15.869-35.448,35.449-35.448
		C462.484,106.299,478.354,122.167,478.354,141.747z"/>
	<path fill="none" stroke="#373431" stroke-width="12" stroke-linecap="round" stroke-linejoin="round" stroke-miterlimit="10" d="
		M159.461,389.767c0,19.556-15.869,35.424-35.426,35.424c-19.58,0-35.449-15.868-35.449-35.424s15.869-35.424,35.449-35.424
		C143.592,354.344,159.461,370.212,159.461,389.767z"/>
	<path fill="none" stroke="#373431" stroke-width="12" stroke-linecap="round" stroke-linejoin="round" stroke-miterlimit="10" d="
		M124.023,106.322c0,9.766-7.922,17.7-17.713,17.7c-9.789,0-17.725-7.935-17.725-17.7c0-9.789,7.936-17.725,17.725-17.725
		C116.102,88.597,124.023,96.533,124.023,106.322z"/>
	<path fill="none" stroke="#373431" stroke-width="12" stroke-linecap="round" stroke-linejoin="round" stroke-miterlimit="10" d="
		M301.182,566.939c0,9.766-7.934,17.699-17.711,17.699c-9.791,0-17.713-7.934-17.713-17.699c0-9.791,7.922-17.725,17.713-17.725
		C293.248,549.215,301.182,557.148,301.182,566.939z"/>
	<path fill="none" stroke="#373431" stroke-width="12" stroke-linecap="round" stroke-linejoin="round" stroke-miterlimit="10" d="
		M212.609,620.088c0,9.766-7.936,17.7-17.725,17.7c-9.791,0-17.713-7.935-17.713-17.7c0-9.79,7.922-17.725,17.713-17.725
		C204.674,602.363,212.609,610.298,212.609,620.088z"/>
	<path fill="none" stroke="#373431" stroke-width="12" stroke-linecap="round" stroke-linejoin="round" stroke-miterlimit="10" d="
		M602.352,354.344c0,9.765-7.91,17.699-17.699,17.699c-9.791,0-17.725-7.935-17.725-17.699c0-9.791,7.934-17.725,17.725-17.725
		C594.441,336.619,602.352,344.552,602.352,354.344z"/>
	<path fill="none" stroke="#373431" stroke-width="12" stroke-linecap="round" stroke-linejoin="round" stroke-miterlimit="10" d="
		M336.619,88.597c0,9.791-7.922,17.725-17.713,17.725c-9.789,0-17.725-7.934-17.725-17.725c0-9.789,7.936-17.725,17.725-17.725
		C328.697,70.873,336.619,78.808,336.619,88.597z"/>
	<path fill="none" stroke="#373431" stroke-width="12" stroke-linecap="round" stroke-linejoin="round" stroke-miterlimit="10" d="
		M248.033,141.747c0,9.766-7.91,17.7-17.699,17.7c-9.791,0-17.725-7.935-17.725-17.7c0-9.79,7.934-17.725,17.725-17.725
		C240.123,124.022,248.033,131.957,248.033,141.747z"/>
	<path fill="none" stroke="#373431" stroke-width="12" stroke-linecap="round" stroke-linejoin="round" stroke-miterlimit="10" d="
		M485.385,445.064L541,483.541L485.385,445.064z"/>
	<path fill="none" stroke="#373431" stroke-width="12" stroke-linecap="round" stroke-linejoin="round" stroke-miterlimit="10" d="
		M467.074,241.599l79.98-79.979L467.074,241.599z"/>
	<path fill="none" stroke="#373431" stroke-width="12" stroke-linecap="round" stroke-linejoin="round" stroke-miterlimit="10" d="
		M532.162,130.59l-54.248,6.787L532.162,130.59z"/>
	<path fill="none" stroke="#373431" stroke-width="12" stroke-linecap="round" stroke-linejoin="round" stroke-miterlimit="10" d="
		M335.191,95.58l75.17,32.202L335.191,95.58z"/>
	<path fill="none" stroke="#373431" stroke-width="12" stroke-linecap="round" stroke-linejoin="round" stroke-miterlimit="10" d="
		M228.076,451.461l-62.098,47.754L228.076,451.461z"/>
	<path fill="none" stroke="#373431" stroke-width="12" stroke-linecap="round" stroke-linejoin="round" stroke-miterlimit="10" d="
		M213.928,278.733l-43.311-23.315L213.928,278.733z"/>
	<path fill="none" stroke="#373431" stroke-width="12" stroke-linecap="round" stroke-linejoin="round" stroke-miterlimit="10" d="
		M116.541,177.927l-7.74-54.149L116.541,177.927z"/>
	<path fill="none" stroke="#373431" stroke-width="12" stroke-linecap="round" stroke-linejoin="round" stroke-miterlimit="10" d="
		M216.771,153.026l-52.111,43.433L216.771,153.026z"/>
	<path fill="none" stroke="#373431" stroke-width="12" stroke-linecap="round" stroke-linejoin="round" stroke-miterlimit="10" d="
		M124.023,478.342v-53.15V478.342z"/>
	<path fill="none" stroke="#373431" stroke-width="12" stroke-linecap="round" stroke-linejoin="round" stroke-miterlimit="10" d="
		M183.873,606.294l-26.781-33.472L183.873,606.294z"/>
	<path fill="none" stroke="#373431" stroke-width="12" stroke-linecap="round" stroke-linejoin="round" stroke-miterlimit="10" d="
		M266.197,563.082l-90.355-20.068L266.197,563.082z"/>
	<path fill="none" stroke="#373431" stroke-width="12" stroke-linecap="round" stroke-linejoin="round" stroke-miterlimit="10" d="
		M489.389,581.806l52.1-37.207L489.389,581.806z"/>
	<path fill="none" stroke="#373431" stroke-width="12" stroke-linecap="round" stroke-linejoin="round" stroke-miterlimit="10" d="
		M584.652,460.617v-88.574V460.617z"/>
</g>
</svg>
